<svg xmlns="http://www.w3.org/2000/svg" width="48" height="47.987" viewBox="0 0 48 47.987">
  <g id="fish_1_" data-name="fish (1)" transform="translate(0 -0.066)">
    <path id="Path_17" data-name="Path 17" d="M267.242,30.07a3.008,3.008,0,0,1-2.328-1.154c-1.35-1.625-1.529-4.484-.446-7.114,2.526-6.135,3.545-10.921,2.725-12.8a1.222,1.222,0,0,0-.7-.721c-2.577-.966-6.535,6.184-8.049,9.8a.787.787,0,0,1-1.452-.608,43.628,43.628,0,0,1,3.042-5.813c2.547-4.009,4.906-5.641,7.011-4.851a2.769,2.769,0,0,1,1.59,1.567c1.37,3.147-1.111,10.141-2.713,14.03-1,2.42-.594,4.552.2,5.509a1.378,1.378,0,0,0,1.406.555c.635-.133,2.856-1.086,4.779-7.762,1.7-5.89,6.63-19.144,7.014-20.136a.787.787,0,1,1,1.468.568c-.366.945-5.319,14.273-6.97,20-1.506,5.227-3.626,8.376-5.969,8.867A2.985,2.985,0,0,1,267.242,30.07Z" transform="translate(-232.844 0)" fill="#807a72"/>
    <path id="Path_18" data-name="Path 18" d="M32.874,197.558a70.757,70.757,0,0,0-7.606-5.743v-5.081a.8.8,0,0,0-1.056-.74,7.987,7.987,0,0,0-5.106,5.818l-5.165-.287,11.63-22.134a.787.787,0,0,0-.326-1.061c-3.1-1.654-7.628-1.816-12.111-.433A18.368,18.368,0,0,0,2.14,176.53c-2.472,4.719-2.824,9.981-.942,14.076a12.1,12.1,0,0,0,8.546,6.732,12.917,12.917,0,0,0,2.9.316,20.407,20.407,0,0,0,7.677-1.69,10.624,10.624,0,0,0,7.553,3.311c.339.02.668.029.985.029a16.576,16.576,0,0,0,3.68-.4A.794.794,0,0,0,32.874,197.558Z" transform="translate(0 -151.252)" fill="#ff9940"/>
    <path id="Path_19" data-name="Path 19" d="M32.684,363.389a.767.767,0,0,1-.132.047,16.58,16.58,0,0,1-3.68.4c-.317,0-.646-.009-.985-.029a10.624,10.624,0,0,1-7.553-3.311,20.408,20.408,0,0,1-7.677,1.69,12.911,12.911,0,0,1-2.9-.316,12.1,12.1,0,0,1-8.546-6.732,13.487,13.487,0,0,1-1.179-4.987,13.931,13.931,0,0,0,1.179,6.469,12.1,12.1,0,0,0,8.546,6.732,12.912,12.912,0,0,0,2.9.316,20.407,20.407,0,0,0,7.677-1.69,10.624,10.624,0,0,0,7.553,3.311c.339.02.668.029.985.029a16.576,16.576,0,0,0,3.68-.4.794.794,0,0,0,.332-1.352Z" transform="translate(-0.01 -317.26)" fill="#f5760f"/>
    <path id="Path_20" data-name="Path 20" d="M97.5,181.224a9.493,9.493,0,0,0,1.738-.16l6.133-11.673a.787.787,0,0,0-.326-1.06c-3.1-1.654-7.628-1.816-12.111-.433a20.806,20.806,0,0,0-4.713,2.115A9.45,9.45,0,0,0,97.5,181.224Z" transform="translate(-79.798 -151.252)" fill="#ffd042"/>
    <circle id="Ellipse_1" data-name="Ellipse 1" cx="1.968" cy="1.968" r="1.968" transform="translate(13.462 18.56)" fill="#ffb266"/>
    <circle id="Ellipse_2" data-name="Ellipse 2" cx="1.181" cy="1.181" r="1.181" transform="translate(14.249 19.347)" fill="#807a72"/>
    <circle id="Ellipse_3" data-name="Ellipse 3" cx="4.631" cy="4.631" r="4.631" transform="translate(37.165 10.781)" fill="#ffd042"/>
    <path id="Path_21" data-name="Path 21" d="M396.864,131.637,405.1,135.1a4.608,4.608,0,0,0,.988-2.786l-7.917-3.334A4.616,4.616,0,0,0,396.864,131.637Z" transform="translate(-359.658 -116.831)" fill="#ffb266"/>
    <path id="Path_22" data-name="Path 22" d="M402.24,124.527a4.631,4.631,0,0,1-2.329-8.633,4.631,4.631,0,1,0,3.476,8.49A4.637,4.637,0,0,1,402.24,124.527Z" transform="translate(-359.263 -104.969)" fill="#ffc412"/>
    <path id="Path_23" data-name="Path 23" d="M398.754,129.231l-.589-.248a4.617,4.617,0,0,0-1.3,2.654l1.156.486c-.009-.121-.016-.242-.016-.366A4.607,4.607,0,0,1,398.754,129.231Z" transform="translate(-359.658 -116.831)" fill="#ff9940"/>
    <g id="Group_38" data-name="Group 38" transform="translate(3.533 26.811)">
      <path id="Path_24" data-name="Path 24" d="M40.442,290.085a2.753,2.753,0,0,1-2.187-4.425.787.787,0,0,1,1.251.955,1.181,1.181,0,1,0,1.877,1.432.787.787,0,1,1,1.251.955A2.752,2.752,0,0,1,40.442,290.085Z" transform="translate(-37.692 -285.351)" fill="#f5760f"/>
      <path id="Path_25" data-name="Path 25" d="M99.209,327.863a2.753,2.753,0,0,1-2.187-4.425.787.787,0,0,1,1.251.955,1.181,1.181,0,1,0,1.877,1.432.787.787,0,1,1,1.251.955A2.752,2.752,0,0,1,99.209,327.863Z" transform="translate(-90.95 -319.587)" fill="#f5760f"/>
      <path id="Path_26" data-name="Path 26" d="M48.941,353.19a2.755,2.755,0,0,1-2.184-4.426.787.787,0,0,1,1.251.955,1.181,1.181,0,1,0,1.877,1.432.787.787,0,0,1,1.251.955,2.737,2.737,0,0,1-1.823,1.059A2.824,2.824,0,0,1,48.941,353.19Z" transform="translate(-45.397 -342.538)" fill="#f5760f"/>
    </g>
    <path id="Path_27" data-name="Path 27" d="M223.382,3.828a3.94,3.94,0,0,0-4.992,2.46c-.608,1.788.679,6.514.943,7.443a.8.8,0,0,0,1.226.417c.775-.576,4.675-3.539,5.283-5.327A3.94,3.94,0,0,0,223.382,3.828Z" transform="translate(-197.77 -3.22)" fill="#64dde3"/>
    <path id="Path_28" data-name="Path 28" d="M219.219,7.079a3.933,3.933,0,0,1,5.992-1.95,3.932,3.932,0,0,0-6.822,1.159c-.608,1.788.679,6.514.943,7.443a.794.794,0,0,0,.768.567C219.741,13,218.65,8.753,219.219,7.079Z" transform="translate(-197.769 -3.22)" fill="#38ced9"/>
    <path id="Path_29" data-name="Path 29" d="M338.609,361.243c-1.8-.582-6.5.771-7.429,1.048a.8.8,0,0,0-.4,1.232c.587.767,3.6,4.625,5.4,5.207h0a3.935,3.935,0,0,0,2.427-7.487Z" transform="translate(-299.628 -327.187)" fill="#64dde3"/>
    <path id="Path_30" data-name="Path 30" d="M341,378.8A3.934,3.934,0,0,1,335.878,383h0c-1.621-.526-4.236-3.717-5.162-4.9a.786.786,0,0,0,.072.83c.587.767,3.6,4.625,5.4,5.207h0A3.933,3.933,0,0,0,341,378.8Z" transform="translate(-299.634 -342.592)" fill="#38ced9"/>
    <path id="Path_31" data-name="Path 31" d="M23.494,61.805h0a3.935,3.935,0,0,0-5.7,5.429c1.3,1.367,6.086,2.418,7.032,2.614a.8.8,0,0,0,.938-.893C25.615,68,24.8,63.172,23.494,61.805Z" transform="translate(-15.145 -54.847)" fill="#64dde3"/>
    <path id="Path_32" data-name="Path 32" d="M18.962,67.375a3.932,3.932,0,0,1,1.023-6.2A3.933,3.933,0,0,0,17.8,67.769c1.3,1.367,6.086,2.418,7.032,2.614a.793.793,0,0,0,.876-.455C24.32,69.626,20.163,68.635,18.962,67.375Z" transform="translate(-15.145 -55.381)" fill="#38ced9"/>
    <g id="Group_39" data-name="Group 39" transform="translate(5.106 3.213)">
      <circle id="Ellipse_4" data-name="Ellipse 4" cx="1.181" cy="1.181" r="1.181" transform="translate(0 3.935)" fill="#89ebf0"/>
      <circle id="Ellipse_5" data-name="Ellipse 5" cx="1.181" cy="1.181" r="1.181" transform="translate(19.677)" fill="#89ebf0"/>
      <circle id="Ellipse_6" data-name="Ellipse 6" cx="1.181" cy="1.181" r="1.181" transform="translate(31.876 32.269)" fill="#89ebf0"/>
    </g>
  </g>
</svg>
